<mxfile host="Electron" modified="2024-05-22T03:03:33.724Z" agent="Mozilla/5.0 (Windows NT 10.0; Win64; x64) AppleWebKit/537.36 (KHTML, like Gecko) draw.io/24.1.0 Chrome/120.0.6099.109 Electron/28.1.0 Safari/537.36" etag="CXjue-i77BjeBG2BB5zG" version="24.1.0" type="device">
  <diagram id="C__0RWwX-VxayJsiDKQM" name="第 1 页">
    <mxGraphModel dx="819" dy="482" grid="0" gridSize="10" guides="1" tooltips="1" connect="1" arrows="1" fold="1" page="1" pageScale="1" pageWidth="827" pageHeight="1169" math="0" shadow="0">
      <root>
        <mxCell id="0" />
        <mxCell id="1" parent="0" />
        <mxCell id="0Dw9TX5f4wWbwImFIq4S-6" style="edgeStyle=orthogonalEdgeStyle;rounded=0;orthogonalLoop=1;jettySize=auto;html=1;exitX=0.991;exitY=0.375;exitDx=0;exitDy=0;entryX=0.034;entryY=0.382;entryDx=0;entryDy=0;exitPerimeter=0;entryPerimeter=0;" parent="1" source="0Dw9TX5f4wWbwImFIq4S-2" target="0Dw9TX5f4wWbwImFIq4S-3" edge="1">
          <mxGeometry relative="1" as="geometry" />
        </mxCell>
        <mxCell id="0Dw9TX5f4wWbwImFIq4S-8" style="edgeStyle=orthogonalEdgeStyle;rounded=0;orthogonalLoop=1;jettySize=auto;html=1;exitX=0.363;exitY=1.004;exitDx=0;exitDy=0;entryX=0.355;entryY=0.021;entryDx=0;entryDy=0;exitPerimeter=0;entryPerimeter=0;" parent="1" source="0Dw9TX5f4wWbwImFIq4S-2" target="0Dw9TX5f4wWbwImFIq4S-4" edge="1">
          <mxGeometry relative="1" as="geometry" />
        </mxCell>
        <mxCell id="0Dw9TX5f4wWbwImFIq4S-2" value="笛卡尔坐标&lt;div&gt;（C3）&lt;/div&gt;" style="ellipse;whiteSpace=wrap;html=1;aspect=fixed;" parent="1" vertex="1">
          <mxGeometry x="120" y="360" width="80" height="80" as="geometry" />
        </mxCell>
        <mxCell id="0Dw9TX5f4wWbwImFIq4S-10" style="edgeStyle=orthogonalEdgeStyle;rounded=0;orthogonalLoop=1;jettySize=auto;html=1;exitX=0.013;exitY=0.618;exitDx=0;exitDy=0;entryX=1.005;entryY=0.625;entryDx=0;entryDy=0;entryPerimeter=0;exitPerimeter=0;" parent="1" source="0Dw9TX5f4wWbwImFIq4S-3" target="0Dw9TX5f4wWbwImFIq4S-2" edge="1">
          <mxGeometry relative="1" as="geometry" />
        </mxCell>
        <mxCell id="0Dw9TX5f4wWbwImFIq4S-18" style="edgeStyle=orthogonalEdgeStyle;rounded=0;orthogonalLoop=1;jettySize=auto;html=1;exitX=0.613;exitY=0.996;exitDx=0;exitDy=0;exitPerimeter=0;entryX=0.605;entryY=0.018;entryDx=0;entryDy=0;entryPerimeter=0;" parent="1" source="0Dw9TX5f4wWbwImFIq4S-3" target="0Dw9TX5f4wWbwImFIq4S-5" edge="1">
          <mxGeometry relative="1" as="geometry" />
        </mxCell>
        <mxCell id="0Dw9TX5f4wWbwImFIq4S-3" value="地理坐标&lt;div&gt;（弧度）&lt;/div&gt;" style="ellipse;whiteSpace=wrap;html=1;aspect=fixed;" parent="1" vertex="1">
          <mxGeometry x="400" y="360" width="80" height="80" as="geometry" />
        </mxCell>
        <mxCell id="0Dw9TX5f4wWbwImFIq4S-22" style="edgeStyle=orthogonalEdgeStyle;rounded=0;orthogonalLoop=1;jettySize=auto;html=1;entryX=0.62;entryY=0.982;entryDx=0;entryDy=0;entryPerimeter=0;exitX=0.62;exitY=0.043;exitDx=0;exitDy=0;exitPerimeter=0;" parent="1" source="0Dw9TX5f4wWbwImFIq4S-4" target="0Dw9TX5f4wWbwImFIq4S-2" edge="1">
          <mxGeometry relative="1" as="geometry" />
        </mxCell>
        <mxCell id="0Dw9TX5f4wWbwImFIq4S-4" value="屏幕坐标&lt;div&gt;（C2）&lt;/div&gt;" style="ellipse;whiteSpace=wrap;html=1;aspect=fixed;" parent="1" vertex="1">
          <mxGeometry x="120" y="610" width="80" height="80" as="geometry" />
        </mxCell>
        <mxCell id="0Dw9TX5f4wWbwImFIq4S-14" style="rounded=0;orthogonalLoop=1;jettySize=auto;html=1;exitX=0;exitY=0;exitDx=0;exitDy=0;entryX=0.009;entryY=-0.029;entryDx=0;entryDy=0;entryPerimeter=0;" parent="1" source="0Dw9TX5f4wWbwImFIq4S-5" edge="1">
          <mxGeometry relative="1" as="geometry">
            <mxPoint x="181.80000000000007" y="418.84000000000003" as="targetPoint" />
          </mxGeometry>
        </mxCell>
        <mxCell id="0Dw9TX5f4wWbwImFIq4S-17" style="edgeStyle=orthogonalEdgeStyle;rounded=0;orthogonalLoop=1;jettySize=auto;html=1;entryX=0.363;entryY=0.982;entryDx=0;entryDy=0;exitX=0.37;exitY=0.054;exitDx=0;exitDy=0;exitPerimeter=0;entryPerimeter=0;" parent="1" source="0Dw9TX5f4wWbwImFIq4S-5" target="0Dw9TX5f4wWbwImFIq4S-3" edge="1">
          <mxGeometry relative="1" as="geometry" />
        </mxCell>
        <mxCell id="0Dw9TX5f4wWbwImFIq4S-5" value="经纬度坐标&lt;div&gt;（WGS84）&lt;/div&gt;" style="ellipse;whiteSpace=wrap;html=1;aspect=fixed;" parent="1" vertex="1">
          <mxGeometry x="400" y="600" width="80" height="80" as="geometry" />
        </mxCell>
        <mxCell id="0Dw9TX5f4wWbwImFIq4S-7" value="&lt;font style=&quot;font-size: 9px;&quot;&gt;&lt;span style=&quot;color: rgb(51, 51, 51); font-family: &amp;quot;Open Sans&amp;quot;, &amp;quot;Clear Sans&amp;quot;, &amp;quot;Helvetica Neue&amp;quot;, Helvetica, Arial, &amp;quot;Segoe UI Emoji&amp;quot;, sans-serif; text-align: left; white-space: pre-wrap; background-color: rgb(255, 255, 255);&quot;&gt;&lt;font style=&quot;&quot;&gt;Cartographic.fromCartesian&lt;br/&gt;&lt;/font&gt;&lt;/span&gt;&lt;span style=&quot;color: rgb(51, 51, 51); font-family: &amp;quot;Open Sans&amp;quot;, &amp;quot;Clear Sans&amp;quot;, &amp;quot;Helvetica Neue&amp;quot;, Helvetica, Arial, &amp;quot;Segoe UI Emoji&amp;quot;, sans-serif; text-align: left; white-space: pre-wrap; background-color: rgb(255, 255, 255);&quot;&gt;(cartesian, ellipsoid, result) &lt;/span&gt;&lt;/font&gt;" style="text;html=1;align=center;verticalAlign=middle;resizable=0;points=[];autosize=1;strokeColor=none;fillColor=none;" parent="1" vertex="1">
          <mxGeometry x="229" y="333" width="130" height="40" as="geometry" />
        </mxCell>
        <mxCell id="0Dw9TX5f4wWbwImFIq4S-9" value="&lt;font style=&quot;font-size: 9px;&quot;&gt;Cartesian2.fromCartesian3&lt;br&gt;(cartesian, result)&lt;/font&gt;" style="text;html=1;align=center;verticalAlign=middle;resizable=0;points=[];autosize=1;strokeColor=none;fillColor=none;rotation=-90;" parent="1" vertex="1">
          <mxGeometry x="60" y="500" width="130" height="40" as="geometry" />
        </mxCell>
        <mxCell id="0Dw9TX5f4wWbwImFIq4S-13" value="&lt;font style=&quot;font-size: 9px;&quot;&gt;Math.toRadians(degrees)&lt;/font&gt;" style="text;html=1;align=center;verticalAlign=middle;resizable=0;points=[];autosize=1;strokeColor=none;fillColor=none;rotation=-90;" parent="1" vertex="1">
          <mxGeometry x="355" y="502" width="120" height="26" as="geometry" />
        </mxCell>
        <mxCell id="0Dw9TX5f4wWbwImFIq4S-16" value="&lt;font style=&quot;font-size: 9px;&quot;&gt;Cartesian3.fromDegrees&lt;br&gt;(longitude, latitude, height, ellipsoid, result)&lt;/font&gt;" style="text;html=1;align=center;verticalAlign=middle;resizable=0;points=[];autosize=1;strokeColor=none;fillColor=none;rotation=40;" parent="1" vertex="1">
          <mxGeometry x="240" y="510" width="190" height="40" as="geometry" />
        </mxCell>
        <mxCell id="0Dw9TX5f4wWbwImFIq4S-20" value="&lt;span style=&quot;font-size: 9px; box-sizing: border-box; color: rgb(51, 51, 51); font-family: &amp;quot;Open Sans&amp;quot;, &amp;quot;Clear Sans&amp;quot;, &amp;quot;Helvetica Neue&amp;quot;, Helvetica, Arial, &amp;quot;Segoe UI Emoji&amp;quot;, sans-serif; text-align: left; white-space: pre-wrap; background-color: rgb(248, 248, 248);&quot; class=&quot;md-plain md-expand&quot;&gt;Cartesian3.fromRadians&lt;/span&gt;&lt;span style=&quot;font-family: var(--monospace); font-size: 9px; box-sizing: border-box; opacity: 1; color: rgb(167, 167, 167); white-space: pre-wrap; text-align: left; background-color: rgb(248, 248, 248);&quot; spellcheck=&quot;false&quot; class=&quot;md-br md-tag&quot;&gt;&lt;br&gt;&lt;/span&gt;&lt;span style=&quot;font-size: 9px; box-sizing: border-box; color: rgb(51, 51, 51); font-family: &amp;quot;Open Sans&amp;quot;, &amp;quot;Clear Sans&amp;quot;, &amp;quot;Helvetica Neue&amp;quot;, Helvetica, Arial, &amp;quot;Segoe UI Emoji&amp;quot;, sans-serif; text-align: left; white-space: pre-wrap; background-color: rgb(248, 248, 248);&quot; class=&quot;md-plain md-expand&quot;&gt;(longitude, latitude, height, ellipsoid, result) &lt;/span&gt;" style="text;html=1;align=center;verticalAlign=middle;resizable=0;points=[];autosize=1;strokeColor=none;fillColor=none;" parent="1" vertex="1">
          <mxGeometry x="200" y="410" width="200" height="40" as="geometry" />
        </mxCell>
        <mxCell id="0Dw9TX5f4wWbwImFIq4S-21" value="&lt;font style=&quot;font-size: 9px;&quot;&gt;Math.toDegrees(radians)&lt;/font&gt;" style="text;html=1;align=center;verticalAlign=middle;resizable=0;points=[];autosize=1;strokeColor=none;fillColor=none;rotation=90;" parent="1" vertex="1">
          <mxGeometry x="406" y="502" width="118" height="26" as="geometry" />
        </mxCell>
        <mxCell id="0Dw9TX5f4wWbwImFIq4S-23" value="&lt;font style=&quot;font-size: 9px;&quot;&gt;scene.globe.pick&lt;br&gt;(viewer.camera.getPickRay(pt1), scene)&lt;/font&gt;" style="text;html=1;align=center;verticalAlign=middle;resizable=0;points=[];autosize=1;strokeColor=none;fillColor=none;rotation=90;" parent="1" vertex="1">
          <mxGeometry x="100" y="510" width="180" height="40" as="geometry" />
        </mxCell>
        <mxCell id="0Dw9TX5f4wWbwImFIq4S-24" value="&lt;font color=&quot;#007fff&quot; style=&quot;font-size: 8px;&quot;&gt;&lt;i style=&quot;&quot;&gt;世界坐标&lt;/i&gt;&lt;/font&gt;" style="text;html=1;align=center;verticalAlign=middle;resizable=0;points=[];autosize=1;strokeColor=none;fillColor=none;" parent="1" vertex="1">
          <mxGeometry x="130" y="410" width="60" height="30" as="geometry" />
        </mxCell>
        <mxCell id="0Dw9TX5f4wWbwImFIq4S-25" value="1️⃣" style="text;html=1;align=center;verticalAlign=middle;resizable=0;points=[];autosize=1;strokeColor=none;fillColor=none;" parent="1" vertex="1">
          <mxGeometry x="380" y="470" width="40" height="30" as="geometry" />
        </mxCell>
        <mxCell id="0Dw9TX5f4wWbwImFIq4S-26" value="&lt;font style=&quot;font-size: 8px;&quot;&gt;&lt;font style=&quot;&quot;&gt;1️⃣：还有另外一种转换方法&lt;br&gt;&lt;/font&gt;&lt;span style=&quot;background-color: initial;&quot;&gt;Cartographic(lng, lat, heigh)&lt;/span&gt;&lt;/font&gt;" style="text;html=1;align=center;verticalAlign=middle;resizable=0;points=[];autosize=1;strokeColor=none;fillColor=none;" parent="1" vertex="1">
          <mxGeometry x="500" y="405" width="120" height="40" as="geometry" />
        </mxCell>
        <mxCell id="0Dw9TX5f4wWbwImFIq4S-27" value="2️⃣" style="text;html=1;align=center;verticalAlign=middle;resizable=0;points=[];autosize=1;strokeColor=none;fillColor=none;" parent="1" vertex="1">
          <mxGeometry x="270" y="508" width="40" height="30" as="geometry" />
        </mxCell>
        <mxCell id="0Dw9TX5f4wWbwImFIq4S-28" value="&lt;font style=&quot;&quot;&gt;&lt;br&gt;&lt;/font&gt;" style="text;html=1;align=center;verticalAlign=middle;resizable=0;points=[];autosize=1;strokeColor=none;fillColor=none;" parent="1" vertex="1">
          <mxGeometry x="655" y="515" width="20" height="30" as="geometry" />
        </mxCell>
        <mxCell id="0Dw9TX5f4wWbwImFIq4S-31" value="&lt;div&gt;&lt;font style=&quot;font-size: 8px;&quot;&gt;2️⃣：其他方法如下：&lt;/font&gt;&lt;/div&gt;&lt;font style=&quot;font-size: 8px;&quot;&gt;①Cartesian3.fromDegrees(longitude, latitude, height) ；&lt;/font&gt;&lt;div&gt;&lt;font style=&quot;font-size: 8px;&quot;&gt;高度height可不填写。&lt;/font&gt;&lt;div&gt;&lt;font style=&quot;font-size: 8px;&quot;&gt;②Cartesian3.fromDegreesArray(coordinates)；&lt;/font&gt;&lt;/div&gt;&lt;div&gt;&lt;font style=&quot;font-size: 8px;&quot;&gt;coordinates格式为不带高度的数组。&lt;br&gt;例如：[-115.0, 37.0, -107.0, 33.0]&lt;/font&gt;&lt;/div&gt;&lt;div&gt;&lt;font style=&quot;font-size: 8px;&quot;&gt;③Cartesian3.fromDegreesArrayHeights(coordinates);&lt;/font&gt;&lt;/div&gt;&lt;div&gt;&lt;font style=&quot;font-size: 8px;&quot;&gt;coordinates格式为带有高度的数组。&lt;br&gt;例如：[-115.0, 37.0, 100000.0, -107.0, 33.0, 150000.0]&lt;/font&gt;&lt;/div&gt;&lt;/div&gt;" style="text;html=1;align=left;verticalAlign=middle;resizable=0;points=[];autosize=1;strokeColor=none;fillColor=none;" parent="1" vertex="1">
          <mxGeometry x="510" y="453" width="220" height="140" as="geometry" />
        </mxCell>
        <mxCell id="jhqN5BeEraCaQrA8iGk5-1" value="&lt;font style=&quot;font-size: 8px;&quot;&gt;咕噜一口温开水&lt;/font&gt;" style="text;html=1;align=center;verticalAlign=middle;resizable=0;points=[];autosize=1;strokeColor=none;fillColor=none;" parent="1" vertex="1">
          <mxGeometry x="625" y="649" width="74" height="26" as="geometry" />
        </mxCell>
      </root>
    </mxGraphModel>
  </diagram>
</mxfile>
